<svg preserveAspectRatio="none" overflow="visible" style="display: block;" width="20" height="20" viewBox="0 0 20 20" fill="none" xmlns="http://www.w3.org/2000/svg">
<g id="basil:sort-outline">
<path id="Vector" d="M11.225 6.275C11.3422 6.39204 11.501 6.45778 11.6667 6.45778C11.8323 6.45778 11.9911 6.39204 12.1083 6.275L12.7083 5.675V14.1667C12.7083 14.3324 12.7742 14.4914 12.8914 14.6086C13.0086 14.7258 13.1676 14.7917 13.3333 14.7917C13.4991 14.7917 13.6581 14.7258 13.7753 14.6086C13.8925 14.4914 13.9583 14.3324 13.9583 14.1667V5.675L14.5583 6.275C14.6156 6.33641 14.6846 6.38566 14.7612 6.41982C14.8379 6.45398 14.9206 6.47235 15.0046 6.47383C15.0885 6.47531 15.1718 6.45987 15.2497 6.42844C15.3275 6.397 15.3982 6.35021 15.4575 6.29087C15.5169 6.23152 15.5637 6.16082 15.5951 6.083C15.6265 6.00517 15.642 5.92182 15.6405 5.8379C15.639 5.75398 15.6206 5.67122 15.5865 5.59455C15.5523 5.51789 15.5031 5.44888 15.4417 5.39167L13.775 3.725C13.6578 3.60796 13.499 3.54222 13.3333 3.54222C13.1677 3.54222 13.0089 3.60796 12.8917 3.725L11.225 5.39167C11.108 5.50885 11.0422 5.66771 11.0422 5.83333C11.0422 5.99896 11.108 6.15781 11.225 6.275ZM7.29167 14.325L7.89167 13.725C7.94889 13.6636 8.01789 13.6143 8.09455 13.5802C8.17122 13.546 8.25398 13.5277 8.3379 13.5262C8.42182 13.5247 8.50517 13.5401 8.583 13.5716C8.66082 13.603 8.73152 13.6498 8.79086 13.7091C8.85021 13.7685 8.897 13.8392 8.92844 13.917C8.95987 13.9948 8.97531 14.0782 8.97383 14.1621C8.97235 14.246 8.95398 14.3288 8.91982 14.4054C8.88566 14.4821 8.83641 14.5511 8.775 14.6083L7.10833 16.275C6.99115 16.392 6.83229 16.4578 6.66667 16.4578C6.50104 16.4578 6.34219 16.392 6.225 16.275L4.55833 14.6083C4.49693 14.5511 4.44768 14.4821 4.41352 14.4054C4.37936 14.3288 4.36099 14.246 4.35951 14.1621C4.35803 14.0782 4.37346 13.9948 4.4049 13.917C4.43633 13.8392 4.48312 13.7685 4.54247 13.7091C4.60182 13.6498 4.67251 13.603 4.75034 13.5716C4.82816 13.5401 4.91152 13.5247 4.99544 13.5262C5.07935 13.5277 5.16212 13.546 5.23878 13.5802C5.31545 13.6143 5.38445 13.6636 5.44167 13.725L6.04167 14.325V5.83333C6.04167 5.66757 6.10751 5.5086 6.22472 5.39139C6.34194 5.27418 6.50091 5.20833 6.66667 5.20833C6.83243 5.20833 6.9914 5.27418 7.10861 5.39139C7.22582 5.5086 7.29167 5.66757 7.29167 5.83333V14.325Z" fill="#667085"/>
</g>
</svg>
